<mxfile host="app.diagrams.net" modified="2022-03-04T01:02:38.424Z" agent="5.0 (Windows NT 10.0; Win64; x64) AppleWebKit/537.36 (KHTML, like Gecko) Chrome/98.0.4758.102 Safari/537.36" etag="SyPJ750qEQtiWb7MNItk" version="16.6.5" type="github">
  <diagram id="t0qU9rM9wss20aI9hLNw" name="Page-1">
    <mxGraphModel dx="1418" dy="624" grid="1" gridSize="10" guides="1" tooltips="1" connect="1" arrows="1" fold="1" page="1" pageScale="1" pageWidth="827" pageHeight="1169" math="0" shadow="0">
      <root>
        <mxCell id="0" />
        <mxCell id="1" parent="0" />
        <mxCell id="DjOyrysdHGCCEqZP1qna-14" style="edgeStyle=orthogonalEdgeStyle;rounded=0;sketch=1;orthogonalLoop=1;jettySize=auto;html=1;exitX=0.5;exitY=1;exitDx=0;exitDy=0;entryX=0.5;entryY=0;entryDx=0;entryDy=0;fillColor=#d5e8d4;strokeColor=#82b366;fontFamily=Times New Roman;" edge="1" parent="1" source="DjOyrysdHGCCEqZP1qna-1" target="DjOyrysdHGCCEqZP1qna-2">
          <mxGeometry relative="1" as="geometry" />
        </mxCell>
        <mxCell id="DjOyrysdHGCCEqZP1qna-1" value="request" style="rounded=1;whiteSpace=wrap;html=1;fillColor=#d5e8d4;strokeColor=#82b366;shadow=0;sketch=1;glass=0;fontFamily=Times New Roman;" vertex="1" parent="1">
          <mxGeometry x="250" y="80" width="120" height="60" as="geometry" />
        </mxCell>
        <mxCell id="DjOyrysdHGCCEqZP1qna-2" value="UsernamePasswordAuthenticationFilter" style="rounded=0;whiteSpace=wrap;html=1;fillColor=#d5e8d4;strokeColor=#82b366;verticalAlign=top;sketch=1;fontFamily=Times New Roman;" vertex="1" parent="1">
          <mxGeometry x="200" y="209" width="220" height="131" as="geometry" />
        </mxCell>
        <mxCell id="DjOyrysdHGCCEqZP1qna-15" style="edgeStyle=orthogonalEdgeStyle;rounded=0;sketch=1;orthogonalLoop=1;jettySize=auto;html=1;exitX=0.5;exitY=1;exitDx=0;exitDy=0;entryX=0.5;entryY=0;entryDx=0;entryDy=0;fillColor=#d5e8d4;strokeColor=#82b366;fontFamily=Times New Roman;" edge="1" parent="1" source="DjOyrysdHGCCEqZP1qna-4" target="DjOyrysdHGCCEqZP1qna-7">
          <mxGeometry relative="1" as="geometry" />
        </mxCell>
        <mxCell id="DjOyrysdHGCCEqZP1qna-4" value="attemptAuthentication&lt;br&gt;&lt;br&gt;this.getAuthenticationManager().&lt;br&gt;authenticate(authRequest);" style="rounded=0;whiteSpace=wrap;html=1;shadow=0;glass=0;sketch=1;verticalAlign=top;fillColor=#d5e8d4;strokeColor=#82b366;fontFamily=Times New Roman;" vertex="1" parent="1">
          <mxGeometry x="200" y="260" width="220" height="80" as="geometry" />
        </mxCell>
        <mxCell id="DjOyrysdHGCCEqZP1qna-5" value="" style="endArrow=none;dashed=1;html=1;dashPattern=1 3;strokeWidth=2;rounded=0;entryX=1;entryY=0.5;entryDx=0;entryDy=0;exitX=0;exitY=0.5;exitDx=0;exitDy=0;fillColor=#d5e8d4;strokeColor=#82b366;sketch=1;fontFamily=Times New Roman;" edge="1" parent="1" source="DjOyrysdHGCCEqZP1qna-6" target="DjOyrysdHGCCEqZP1qna-4">
          <mxGeometry width="50" height="50" relative="1" as="geometry">
            <mxPoint x="500" y="290" as="sourcePoint" />
            <mxPoint x="350" y="320" as="targetPoint" />
          </mxGeometry>
        </mxCell>
        <mxCell id="DjOyrysdHGCCEqZP1qna-6" value="这里的manager会将认证交由下层的provider去进行" style="rounded=0;whiteSpace=wrap;html=1;shadow=0;glass=0;sketch=1;fillColor=#d5e8d4;strokeColor=#82b366;fontFamily=Times New Roman;" vertex="1" parent="1">
          <mxGeometry x="500" y="270" width="120" height="50" as="geometry" />
        </mxCell>
        <mxCell id="DjOyrysdHGCCEqZP1qna-7" value="账号密码方式采用的provider是DaoAuthenticationProvider" style="rounded=0;whiteSpace=wrap;html=1;shadow=0;glass=0;sketch=1;fillColor=#d5e8d4;strokeColor=#82b366;fontFamily=Times New Roman;" vertex="1" parent="1">
          <mxGeometry x="230" y="400" width="160" height="60" as="geometry" />
        </mxCell>
        <mxCell id="DjOyrysdHGCCEqZP1qna-8" value="" style="endArrow=none;dashed=1;html=1;dashPattern=1 3;strokeWidth=2;rounded=0;fillColor=#d5e8d4;strokeColor=#82b366;sketch=1;fontFamily=Times New Roman;" edge="1" parent="1" target="DjOyrysdHGCCEqZP1qna-4">
          <mxGeometry width="50" height="50" relative="1" as="geometry">
            <mxPoint x="300" y="340" as="sourcePoint" />
            <mxPoint x="350" y="290" as="targetPoint" />
          </mxGeometry>
        </mxCell>
        <mxCell id="DjOyrysdHGCCEqZP1qna-9" value="" style="endArrow=none;dashed=1;html=1;dashPattern=1 3;strokeWidth=2;rounded=0;entryX=0;entryY=0.75;entryDx=0;entryDy=0;exitX=0.583;exitY=0;exitDx=0;exitDy=0;exitPerimeter=0;fillColor=#d5e8d4;strokeColor=#82b366;sketch=1;fontFamily=Times New Roman;" edge="1" parent="1" source="DjOyrysdHGCCEqZP1qna-10" target="DjOyrysdHGCCEqZP1qna-4">
          <mxGeometry width="50" height="50" relative="1" as="geometry">
            <mxPoint x="110" y="370" as="sourcePoint" />
            <mxPoint x="350" y="290" as="targetPoint" />
          </mxGeometry>
        </mxCell>
        <mxCell id="DjOyrysdHGCCEqZP1qna-10" value="这里的authRequest是AuthenticationToken，是通过前端传来的username,password封装出来的对象" style="rounded=0;whiteSpace=wrap;html=1;shadow=0;glass=0;sketch=1;fillColor=#d5e8d4;strokeColor=#82b366;fontFamily=Times New Roman;" vertex="1" parent="1">
          <mxGeometry x="40" y="370" width="130" height="80" as="geometry" />
        </mxCell>
        <mxCell id="DjOyrysdHGCCEqZP1qna-11" value="" style="endArrow=none;dashed=1;html=1;dashPattern=1 3;strokeWidth=2;rounded=0;entryX=0.5;entryY=1;entryDx=0;entryDy=0;fillColor=#d5e8d4;strokeColor=#82b366;sketch=1;fontFamily=Times New Roman;exitX=0.535;exitY=0;exitDx=0;exitDy=0;exitPerimeter=0;" edge="1" parent="1" source="DjOyrysdHGCCEqZP1qna-12" target="DjOyrysdHGCCEqZP1qna-7">
          <mxGeometry width="50" height="50" relative="1" as="geometry">
            <mxPoint x="170" y="520" as="sourcePoint" />
            <mxPoint x="350" y="270" as="targetPoint" />
          </mxGeometry>
        </mxCell>
        <mxCell id="DjOyrysdHGCCEqZP1qna-12" value="调用了UserDetailService查出数据库的当前登录用户UserDetails，在additionalAuthenticationChecks方法中进行校验" style="rounded=0;whiteSpace=wrap;html=1;shadow=0;glass=0;sketch=1;fillColor=#d5e8d4;strokeColor=#82b366;fontFamily=Times New Roman;" vertex="1" parent="1">
          <mxGeometry x="40" y="510" width="250" height="75" as="geometry" />
        </mxCell>
      </root>
    </mxGraphModel>
  </diagram>
</mxfile>
